HIERARCHY
ROOT Hips
{
 OFFSET 0.000000 0.000000 0.000000
 CHANNELS 6 Xposition Yposition Zposition Yrotation Xrotation Zrotation
 JOINT Chest
 {
  OFFSET 0.000000 10.080317 -0.001081
  CHANNELS 3 Yrotation Xrotation Zrotation
  JOINT Chest2
  {
   OFFSET 0.000000 11.096852 0.001963
   CHANNELS 3 Yrotation Xrotation Zrotation
   JOINT Chest3
   {
    OFFSET 0.000000 10.026525 0.000000
    CHANNELS 3 Yrotation Xrotation Zrotation
    JOINT Chest4
    {
     OFFSET 0.000000 10.026525 0.000000
     CHANNELS 3 Yrotation Xrotation Zrotation
     JOINT Neck
     {
      OFFSET 0.000000 14.108171 0.000000
      CHANNELS 3 Yrotation Xrotation Zrotation
      JOINT Head
      {
       OFFSET 0.000000 9.333493 0.004668
       CHANNELS 3 Yrotation Xrotation Zrotation
       End Site
       {
        OFFSET 0.000000 17.851786 0.002438
       }
      }
     }
     JOINT RightCollar
     {
      OFFSET -3.071622 7.873185 0.000000
      CHANNELS 3 Yrotation Xrotation Zrotation
      JOINT RightShoulder
      {
       OFFSET -14.378659 0.000000 0.000000
       CHANNELS 3 Yrotation Xrotation Zrotation
       JOINT RightElbow
       {
        OFFSET -30.778728 0.000000 0.000000
        CHANNELS 3 Yrotation Xrotation Zrotation
        JOINT RightWrist
        {
         OFFSET -25.164217 0.000000 0.000000
         CHANNELS 3 Yrotation Xrotation Zrotation
         End Site
         {
          OFFSET -18.796788 0.000000 0.000000
         }
        }
       }
      }
     }
     JOINT LeftCollar
     {
      OFFSET 3.071622 7.873185 0.000000
      CHANNELS 3 Yrotation Xrotation Zrotation
      JOINT LeftShoulder
      {
       OFFSET 14.378659 0.000000 0.000000
       CHANNELS 3 Yrotation Xrotation Zrotation
       JOINT LeftElbow
       {
        OFFSET 30.778728 0.000000 0.000000
        CHANNELS 3 Yrotation Xrotation Zrotation
        JOINT LeftWrist
        {
         OFFSET 25.164217 0.000000 0.000000
         CHANNELS 3 Yrotation Xrotation Zrotation
         End Site
         {
          OFFSET 18.796788 0.000000 0.000000
         }
        }
       }
      }
     }
    }
   }
  }
 }
 JOINT RightHip
 {
  OFFSET -8.194923 0.005295 0.000540
  CHANNELS 3 Yrotation Xrotation Zrotation
  JOINT RightKnee
  {
   OFFSET 0.000000 -42.473320 -0.000511
   CHANNELS 3 Yrotation Xrotation Zrotation
   JOINT RightAnkle
   {
    OFFSET 0.000000 -41.474259 -0.000865
    CHANNELS 3 Yrotation Xrotation Zrotation
    JOINT RightToe
    {
     OFFSET 0.000000 -7.354994 16.712725
     CHANNELS 3 Yrotation Xrotation Zrotation
     End Site
     {
      OFFSET 0.000000 -1.553903 6.764158
     }
    }
   }
  }
 }
 JOINT LeftHip
 {
  OFFSET 8.194923 0.005295 0.000540
  CHANNELS 3 Yrotation Xrotation Zrotation
  JOINT LeftKnee
  {
   OFFSET 0.000000 -42.473320 -0.000511
   CHANNELS 3 Yrotation Xrotation Zrotation
   JOINT LeftAnkle
   {
    OFFSET 0.000000 -41.474259 -0.000865
    CHANNELS 3 Yrotation Xrotation Zrotation
    JOINT LeftToe
    {
     OFFSET 0.000000 -7.354994 16.712725
     CHANNELS 3 Yrotation Xrotation Zrotation
     End Site
     {
      OFFSET 0.000000 -1.553903 6.764158
     }
    }
   }
  }
 }
}
MOTION
Frames: 7
Frame Time: 0.016667
0.000000 91.111157 0.000000 0.000000 -5.826342 0.000000 0.000000 11.116423 0.000000 0.000000 -5.290081 0.000000 0.000000 0.000000 0.000000 0.000000 0.000000 0.000000 0.000000 12.665069 0.000000 0.000000 0.575450 0.000000 0.000000 0.000000 0.000000 0.000000 0.000000 0.000000 2.337306 0.000000 0.000000 -2.337306 0.000000 0.000000 0.000000 0.000000 0.000000 0.000000 0.000000 0.000000 -2.337306 0.000000 0.000000 2.337306 0.000000 0.000000 0.000000 8.578828 0.000000 0.000000 1.905768 0.000000 0.000000 -4.658254 0.000000 0.000000 0.000000 0.000000 0.000000 8.578828 0.000000 0.000000 1.905768 0.000000 0.000000 -4.658254 0.000000 0.000000 0.000000 0.000000
-54.162755 92.735605 79.625587 -1.635266 -5.039598 -0.681330 0.252362 2.689798 -0.145431 0.124874 1.200288 -0.119448 0.124874 1.200288 -0.119448 0.093887 0.900192 -0.089828 -1.078304 17.650673 1.226170 -2.405097 -3.369450 2.627675 -2.096292 1.160577 9.395218 -2.608227 -2.139105 74.761769 8.935112 8.796402 4.643968 -3.697358 -1.357971 -0.779999 -0.596643 0.428825 -5.976831 -1.739019 -5.975045 -72.146458 -5.556372 16.197316 -11.142054 2.717307 0.701623 10.335418 -6.997893 10.042220 -1.715044 -0.825507 -1.148626 0.293601 -6.756283 -2.768566 1.377741 0.023861 0.112769 0.001218 1.196828 12.586906 3.009015 -4.193731 -0.419483 -0.572990 -2.117664 -6.505112 -1.637949 -0.044422 -0.203307 -0.027913
-54.157509 92.738348 79.614821 -1.650466 -5.034575 -0.687004 0.259724 2.688111 -0.146438 0.127254 1.199705 -0.119924 0.127254 1.199705 -0.119924 0.095672 0.899754 -0.090189 -1.079678 17.645196 1.254516 -2.417394 -3.378674 2.680569 -2.106434 1.156357 9.422273 -2.610379 -2.142454 74.767660 8.984158 8.809353 4.687371 -3.708945 -1.350318 -0.742727 -0.604747 0.423625 -5.957588 -1.745528 -5.980924 -72.167177 -5.642916 16.242057 -11.181560 2.710170 0.727010 10.350735 -7.012883 10.020595 -1.714310 -0.805664 -1.137505 0.294154 -6.756416 -2.753656 1.379224 0.022777 0.103133 0.002564 1.230194 12.572455 3.024002 -4.214727 -0.413778 -0.586691 -2.118281 -6.499951 -1.628801 -0.042732 -0.202345 -0.025944
-54.151355 92.740463 79.597846 -1.667469 -5.036754 -0.693977 0.253899 2.670119 -0.140923 0.124032 1.192252 -0.117908 0.124032 1.192252 -0.117908 0.093251 0.894165 -0.088670 -1.078124 17.650571 1.272174 -2.420358 -3.368181 2.712457 -2.081941 1.194704 9.436048 -2.623842 -2.147106 74.759365 9.052575 8.807764 4.733318 -3.713080 -1.351869 -0.723189 -0.595764 0.459618 -5.969544 -1.747582 -5.983151 -72.170139 -5.753098 16.327737 -11.240368 2.717180 0.752821 10.378079 -7.010333 10.003466 -1.707319 -0.804943 -1.129060 0.289510 -6.746440 -2.738674 1.378321 0.023740 0.100369 0.006597 1.230357 12.553626 3.016537 -4.225126 -0.385818 -0.568971 -2.103055 -6.507598 -1.628089 -0.042439 -0.198095 -0.029255
-54.144917 92.741416 79.586181 -1.698133 -5.039989 -0.693976 0.247689 2.676224 -0.130352 0.120764 1.194025 -0.113666 0.120764 1.194025 -0.113666 0.090792 0.895496 -0.085482 -1.085502 17.641478 1.284809 -2.438511 -3.384412 2.738515 -2.027699 1.189636 9.436993 -2.612195 -2.134351 74.745386 9.141783 8.786486 4.790417 -3.711307 -1.354715 -0.700825 -0.578542 0.460853 -6.000483 -1.759754 -5.982359 -72.173039 -5.850965 16.389742 -11.288555 2.758124 0.772766 10.397935 -7.000150 9.991177 -1.708283 -0.798679 -1.125975 0.283694 -6.729933 -2.723123 1.385007 0.023292 0.098701 0.005251 1.259475 12.540867 3.021968 -4.239843 -0.362037 -0.585563 -2.093519 -6.517739 -1.608623 -0.043457 -0.194118 -0.031991
-54.136148 92.743949 79.572358 -1.715919 -5.053345 -0.694694 0.248707 2.681223 -0.133038 0.120858 1.196795 -0.114717 0.120858 1.196795 -0.114717 0.090865 0.897574 -0.086271 -1.097370 17.628602 1.313098 -2.470369 -3.406997 2.795082 -2.024855 1.203157 9.468278 -2.620694 -2.143805 74.720030 9.242068 8.767115 4.862194 -3.737100 -1.356602 -0.634851 -0.589885 0.458778 -6.002681 -1.769342 -5.978632 -72.196266 -5.905017 16.434596 -11.315909 2.770337 0.786400 10.437501 -6.983139 9.984530 -1.711786 -0.801803 -1.113111 0.284449 -6.735305 -2.709687 1.389056 0.022184 0.094832 0.005123 1.285915 12.529978 3.011376 -4.241131 -0.326885 -0.566487 -2.113589 -6.525982 -1.602143 -0.040936 -0.194661 -0.037588
-54.130134 92.745389 79.558788 -1.739267 -5.064315 -0.694892 0.255631 2.684461 -0.130131 0.123485 1.197310 -0.114089 0.123485 1.197310 -0.114089 0.092834 0.897959 -0.085805 -1.127889 17.620106 1.339798 -2.535970 -3.420841 2.854928 -2.052566 1.246579 9.493965 -2.618312 -2.165170 74.678429 9.360558 8.752013 4.965146 -3.778946 -1.342336 -0.567471 -0.623433 0.463565 -6.010271 -1.750233 -5.964162 -72.234116 -5.974340 16.507613 -11.359926 2.801340 0.805775 10.501649 -6.959569 9.982648 -1.714738 -0.817898 -1.114573 0.287566 -6.727272 -2.690453 1.398662 0.023457 0.093053 -0.001758 1.345961 12.512004 3.016814 -4.255527 -0.284147 -0.565392 -2.143641 -6.539620 -1.593577 -0.040779 -0.193895 -0.037895
